<svg xmlns="http://www.w3.org/2000/svg" style="width:100%; height:100%;" width="168" height="31" viewBox="0 0 168 31" fill="none" preserveAspectRatio="none">
<g clip-path="url(#clip0_124_95)">
<path d="M6.72147 20.6776C8.7172 20.6776 10.7889 19.5192 10.7889 17.0574V15.9715L7.02762 16.9689C5.53831 17.3634 4.70963 17.9664 4.70963 18.991C4.70963 20.1199 5.53831 20.6776 6.72147 20.6776ZM0.352187 19.4013C0.352187 16.4838 2.73232 15.4275 5.98487 14.6068L10.729 13.419C10.4689 11.7166 9.27195 10.8529 7.29234 10.8529C5.51069 10.8529 4.08353 11.6735 3.04078 13.317L0 11.5261C1.61131 8.87162 4.25156 7.28706 7.79645 7.28706C12.4485 7.28706 15.1486 9.78064 15.1486 13.886V23.4024H11.1894V21.1015C10.0523 22.6996 8.13482 23.6971 5.54061 23.6971C2.56199 23.6971 0.352187 22.2032 0.352187 19.4013Z" fill="#F9F8EF"/>
<path d="M25.4403 20.0179C27.7261 20.0179 29.5538 18.4628 29.5538 15.5023C29.5538 12.5417 27.7261 10.9708 25.4403 10.9708C23.1545 10.9708 21.3407 12.5417 21.3407 15.5023C21.3407 18.4628 23.1684 20.0179 25.4403 20.0179ZM20.9125 21.1173V23.4046H16.9671V0.5H21.3407V9.3862C22.5676 8.06687 24.2709 7.28933 26.2068 7.28933C30.3203 7.28933 33.9112 10.5151 33.9112 15.5023C33.9112 20.4894 30.3203 23.6993 26.2068 23.6993C24.0131 23.6993 22.1693 22.7314 20.9102 21.1196L20.9125 21.1173Z" fill="#F9F8EF"/>
<path d="M43.6689 20.0179C45.9569 20.0179 47.7823 18.4628 47.7823 15.5023C47.7823 12.5417 45.9546 10.9708 43.6689 10.9708C41.3831 10.9708 39.5692 12.5417 39.5692 15.5023C39.5692 18.4628 41.3969 20.0179 43.6689 20.0179ZM39.1411 21.1173V23.4046H35.1956V0.5H39.5692V9.3862C40.7984 8.06687 42.5018 7.28933 44.4354 7.28933C48.5488 7.28933 52.1397 10.5151 52.1397 15.5023C52.1397 20.4894 48.5488 23.6993 44.4354 23.6993C42.2417 23.6993 40.3979 22.7314 39.1388 21.1196L39.1411 21.1173Z" fill="#F9F8EF"/>
<path d="M51.2144 25.5741L54.6971 23.552C55.9862 25.8687 57.5515 26.8231 59.9477 26.8231C62.8642 26.8231 64.4295 25.2839 64.4295 22.482V20.8408C63.2624 22.2191 61.559 22.9377 59.3953 22.9377C55.558 22.9377 53.026 20.3715 53.026 16.4408V7.58176H57.3857V16.2322C57.3857 18.4016 58.6448 19.6348 60.8385 19.6348C63.0322 19.6348 64.4295 18.286 64.4295 16.2775V7.58176H68.803V22.4797C68.803 27.51 65.5643 30.5 60.1457 30.5C55.9102 30.5 52.9615 28.8588 51.2121 25.5718L51.2144 25.5741Z" fill="#F9F8EF"/>
<path d="M102.588 13.8293C102.588 8.65399 106.441 5.61636 111.261 5.61636C115.559 5.61636 118.719 7.6407 119.534 11.4377L115.174 12.1563C114.714 10.2658 113.162 9.29779 111.259 9.29779C108.865 9.29779 106.961 10.7214 106.961 13.8293C106.961 16.9372 108.865 18.3449 111.259 18.3449C113.179 18.3449 114.714 17.377 115.174 15.5L119.534 16.2027C118.721 20.0156 115.559 22.0241 111.261 22.0241C106.441 22.0241 102.588 18.9887 102.588 13.827V13.8293Z" fill="#F9F8EF"/>
<path d="M127.001 19.0069C128.997 19.0069 131.069 17.8485 131.069 15.3867V14.3008L127.307 15.2983C125.818 15.6927 124.989 16.2957 124.989 17.3203C124.989 18.4492 125.818 19.0069 127.001 19.0069ZM120.632 17.7306C120.632 14.8131 123.01 13.7568 126.265 12.9362L131.009 11.7483C130.749 10.0459 129.552 9.18219 127.572 9.18219C125.791 9.18219 124.363 10.0028 123.321 11.6463L120.282 9.85772C121.893 7.20319 124.534 5.61864 128.079 5.61864C132.731 5.61864 135.431 8.11221 135.431 12.2175V21.7339H131.472V19.4331C130.334 21.0312 128.417 22.0286 125.823 22.0286C122.844 22.0286 120.634 20.5348 120.634 17.7329H120.632V17.7306Z" fill="#F9F8EF"/>
<path d="M136.897 5.91106H140.859V7.68377C141.763 6.43698 143.19 5.63223 145.218 5.63223C148.395 5.63223 150.697 7.7291 150.697 11.3652V12.1291L146.507 12.4669V12.043C146.507 10.1819 145.633 9.19805 143.897 9.19805C142.161 9.19805 141.257 10.2249 141.257 12.1155V21.7339H136.897V5.91106Z" fill="#F9F8EF"/>
<path d="M163.424 11.9523C162.993 10.1048 161.737 9.17991 159.879 9.17991C158.021 9.17991 156.578 10.0889 155.98 11.9523H163.424ZM151.33 13.8293C151.33 8.84441 155.045 5.61636 159.879 5.61636C164.713 5.61636 168 8.41824 168 13.5187V14.5751H155.738C156.014 17.1866 157.718 18.4606 159.819 18.4606C161.801 18.4606 163.09 17.683 163.933 16.0849L167.694 17.4178C166.327 20.2627 163.55 22.0218 159.819 22.0218C154.985 22.0218 151.332 18.7961 151.332 13.8248L151.33 13.8293Z" fill="#F9F8EF"/>
<path d="M86.829 23.8263C89.1216 22.2576 91.5547 20.8589 93.6609 19.0545C95.4679 17.5062 97.4199 15.3935 97.6455 12.9815C97.8458 10.8688 96.4946 8.72427 94.4804 7.83112C91.7274 6.61153 88.7119 7.82659 86.8704 9.92119L86.829 23.824V23.8263Z" fill="#F4BA00"/>
<path d="M79.0095 7.27119C78.243 7.27119 77.4673 7.42308 76.7123 7.75631C74.6981 8.64946 73.3469 10.7917 73.5472 12.9067C73.7751 15.3186 75.7248 17.4314 77.5317 18.9797C79.6379 20.7841 82.071 22.1828 84.3637 23.7515L84.3223 9.84865C82.9849 8.32756 81.0329 7.27119 79.0095 7.27119ZM79.0049 9.0235C80.2733 9.0235 81.6038 9.62422 82.6465 10.6489L82.6764 20.7478C81.194 19.7844 79.7945 18.8641 78.5215 17.7714C76.4683 16.01 75.3588 14.3756 75.2183 12.9089C75.0848 11.4989 76.0286 9.97106 77.4143 9.359C77.9207 9.13458 78.4525 9.02123 79.0049 9.02123V9.0235Z" fill="#F4BA00"/>
</g>
</svg>