<svg width="148" height="48" viewBox="0 0 148 48" fill="none" xmlns="http://www.w3.org/2000/svg">
<g id="Group">
<g id="Group_2">
<g id="Group_3">
<g id="Group_4">
<path id="Vector" d="M67.2321 36.0125C67.2321 37.4655 66.1023 38.6361 64.5693 38.6361C63.3987 38.6361 62.5121 37.9504 61.9865 36.6997L60.8567 33.9539H49.5981L48.4683 36.6983C47.9835 37.9489 47.0954 38.6346 45.9263 38.6346C44.3932 38.6346 43.2227 37.4641 43.2227 36.0111C43.2227 35.6078 43.3435 35.123 43.5459 34.5581L52.6657 12.8883C53.1491 11.677 54.0372 11.032 55.2485 11.032C56.4584 11.032 57.3465 11.677 57.8313 12.8883L66.9104 34.5581C67.1506 35.1244 67.2321 35.6093 67.2321 36.0125ZM51.3729 29.4755H59.0397L55.247 19.0643L51.3729 29.4755Z" fill="#060920"/>
<path id="Vector_2" d="M75.7976 13.8186V35.851C75.7976 37.4248 74.6271 38.6347 73.094 38.6347C71.5202 38.6347 70.3496 37.4233 70.3496 35.851V13.8186C70.3496 12.2448 71.4794 11.0349 73.094 11.0349C74.6271 11.0349 75.7976 12.2448 75.7976 13.8186ZM92.4635 36.0533C92.4635 37.4248 91.2929 38.6361 89.9215 38.6361C89.1149 38.6361 88.3476 38.2328 87.7434 37.5063L77.6146 25.8445C77.1706 25.3203 76.8881 24.6739 76.8881 24.0289C76.8881 23.4233 77.1706 22.8176 77.6554 22.2935L87.2586 11.923C87.8642 11.3174 88.4291 11.0349 89.2357 11.0349C90.5679 11.0349 91.6977 12.1647 91.6977 13.5769C91.6977 14.2219 91.456 14.7883 90.8911 15.3925L82.8617 24.0682L91.7792 34.3979C92.2611 34.9643 92.4635 35.4884 92.4635 36.0533Z" fill="#060920"/>
<path id="Vector_3" d="M101.641 13.8186V35.851C101.641 37.4248 100.471 38.6347 98.9378 38.6347C97.3639 38.6347 96.1934 37.4233 96.1934 35.851V13.8186C96.1934 12.2448 97.3231 11.0349 98.9378 11.0349C100.471 11.0349 101.641 12.2448 101.641 13.8186ZM118.307 36.0533C118.307 37.4248 117.137 38.6361 115.765 38.6361C114.959 38.6361 114.191 38.2328 113.587 37.5063L103.458 25.8445C103.014 25.3203 102.732 24.6739 102.732 24.0289C102.732 23.4233 103.014 22.8176 103.499 22.2935L113.102 11.923C113.708 11.3174 114.273 11.0349 115.079 11.0349C116.412 11.0349 117.541 12.1647 117.541 13.5769C117.541 14.2219 117.3 14.7883 116.735 15.3925L108.705 24.0682L117.623 34.3979C118.106 34.9643 118.307 35.4884 118.307 36.0533Z" fill="#060920"/>
<path id="Vector_4" d="M147.95 24.8355C147.95 32.5431 141.695 38.6361 133.746 38.6361C125.797 38.6361 119.622 32.5839 119.622 24.8355C119.622 17.0871 125.836 11.0349 133.746 11.0349C141.695 11.0349 147.95 17.1279 147.95 24.8355ZM125.23 24.8355C125.23 29.9603 128.781 33.5914 133.785 33.5914C138.748 33.5914 142.34 29.9196 142.34 24.8355C142.34 19.7515 138.748 16.0797 133.785 16.0797C128.781 16.0782 125.23 19.7107 125.23 24.8355Z" fill="#060920"/>
</g>
</g>
</g>
<g id="Group_5">
<g id="Group_6">
<path id="Vector_5" d="M24.2282 21.4727H10.8018V26.8435H24.2282V21.4727Z" fill="#F5103B"/>
<path id="Vector_6" opacity="0.3" d="M13.4941 26.8435V21.4727H14.8394L13.4941 26.8435Z" fill="#5C0617"/>
<path id="Vector_7" opacity="0.3" d="M21.5498 26.8435V21.4727H20.2031L21.5498 26.8435Z" fill="#5C0617"/>
<path id="Vector_8" d="M26.9128 17.4456V31.4209C26.9128 31.9116 26.6507 32.3644 26.2241 32.6075L22.2379 34.886C21.9278 35.0636 21.5419 34.8394 21.5419 34.4827V17.4456C21.5419 16.3333 21.0906 15.3273 20.3612 14.5979C19.6318 13.8684 18.6257 13.4171 17.5134 13.4171C15.3659 13.4171 13.6101 15.0987 13.4922 17.217C13.4936 17.1617 13.4966 17.1064 13.4995 17.0525C13.5067 16.9433 13.5155 16.8356 13.5257 16.7264C13.5315 16.6725 13.5373 16.6187 13.5446 16.5648C13.5533 16.5109 13.5592 16.4571 13.5679 16.4046C13.5766 16.3508 13.5854 16.2984 13.5941 16.2445C13.613 16.1397 13.6349 16.0348 13.6582 15.93C13.6698 15.8791 13.6844 15.8266 13.696 15.7757C13.7091 15.7247 13.7222 15.6723 13.7382 15.6214C13.7513 15.5689 13.7674 15.5151 13.7848 15.4627C13.7994 15.4146 13.8139 15.3666 13.83 15.3185C13.9071 15.0827 13.9988 14.8526 14.1037 14.6284C14.1211 14.5877 14.1401 14.5484 14.1605 14.509C14.1692 14.4887 14.1794 14.4697 14.1896 14.4493C14.2129 14.4028 14.2362 14.3562 14.2609 14.3096C14.3905 14.0664 14.5332 13.832 14.6919 13.6064C14.737 13.5394 14.785 13.4739 14.8331 13.4084C15.0224 13.158 15.2291 12.9192 15.4518 12.6964C16.6675 11.4807 18.3447 10.7295 20.1981 10.7295C23.7899 10.7295 26.7235 13.5496 26.9011 17.0977C26.9099 17.2141 26.9128 17.3306 26.9128 17.4456Z" fill="url(#paint0_linear_435_16894)"/>
<path id="Vector_9" d="M26.9028 17.1005C26.7238 13.5539 23.7901 10.7323 20.1998 10.7323C18.3464 10.7323 16.6692 11.4836 15.4535 12.6993C15.2308 12.922 15.024 13.1593 14.8348 13.4112C14.7867 13.4753 14.7401 13.5408 14.6935 13.6092C14.5349 13.8349 14.3922 14.0693 14.2626 14.3124C14.2378 14.359 14.2146 14.4056 14.1913 14.4522C14.1811 14.4726 14.1709 14.4915 14.1621 14.5119C14.1534 14.5308 14.1447 14.5497 14.1359 14.5687C14.0224 14.8103 13.9234 15.0593 13.836 15.3126C13.8185 15.3621 13.8011 15.4145 13.7865 15.4655C13.769 15.5179 13.753 15.5718 13.7399 15.6242C13.7239 15.6752 13.7108 15.7276 13.6977 15.7785C13.6846 15.8295 13.6715 15.8819 13.6598 15.9328C13.6336 16.0362 13.6133 16.141 13.5958 16.2473C13.5856 16.3012 13.5754 16.3536 13.5696 16.4075C13.5608 16.4613 13.5521 16.5138 13.5463 16.5676C13.5376 16.6215 13.5317 16.6754 13.5274 16.7292C13.5143 16.837 13.5055 16.9447 13.5012 17.0554C13.4953 17.1238 13.4924 17.1922 13.4924 17.2621C13.4924 17.2796 13.491 17.2985 13.491 17.316C13.4881 17.3596 13.4881 17.4048 13.4881 17.4485V34.4856C13.4881 34.8423 13.1022 35.0665 12.7921 34.8888L8.80583 32.6103C8.38071 32.3672 8.11719 31.9144 8.11719 31.4238V17.6144C8.11719 12.4081 12.3772 8.01268 17.5835 8.05054C20.1518 8.06801 22.4754 9.11772 24.1614 10.8022C25.7832 12.4241 26.814 14.6415 26.9028 17.1005Z" fill="url(#paint1_linear_435_16894)"/>
</g>
<g id="Group_7">
<path id="Vector_10" d="M17.504 42.9443V48.0007C17.1662 48.0007 16.8313 47.9177 16.5256 47.7517L13.7943 46.1939L5.36602 41.3763L1.25743 39.0279C0.479972 38.5839 0.000976562 37.7569 0.000976562 36.8615V10.7381C0.000976562 9.25594 0.602269 7.91359 1.57191 6.94104C2.543 5.96994 3.88681 5.36865 5.36747 5.36865V36.0098L17.504 42.9443Z" fill="url(#paint2_linear_435_16894)"/>
<path id="Vector_11" d="M34.8909 5.36868V36.9285C34.8909 37.8254 34.4119 38.6509 33.6345 39.0978L29.523 41.4448L22.6481 45.3743L18.4828 47.7532C18.177 47.9192 17.8422 48.0022 17.5059 48.0022V42.9458L29.5244 36.0783V4.53736C29.3468 3.38864 28.8037 2.36077 28.0161 1.57457C27.0435 0.602025 25.7012 0.000732422 24.2191 0.000732422H29.523C32.4887 0.000732422 34.8909 2.4059 34.8909 5.36868Z" fill="url(#paint3_linear_435_16894)"/>
<path id="Vector_12" d="M29.523 4.53615V5.36893H5.36795C3.88583 5.36893 2.54494 5.97022 1.57239 6.94131C0.601292 7.91386 0 9.25622 0 10.7369V5.36893C0 5.09085 0.0218387 4.81859 0.0611484 4.55216C0.0742516 4.46335 0.0902666 4.37454 0.107738 4.28718C0.161606 4.02512 0.235858 3.77034 0.324669 3.52429C0.353787 3.44275 0.385817 3.36122 0.419303 3.28115C0.691559 2.63764 1.08466 2.05964 1.57093 1.57482C2.05721 1.08854 2.6352 0.695447 3.27726 0.423191C3.35588 0.389705 3.43887 0.357675 3.5204 0.328557C3.7679 0.23829 4.02269 0.165495 4.2833 0.111626C4.37065 0.094155 4.45946 0.07814 4.54827 0.0650367C4.81762 0.0228153 5.08987 0.000976562 5.36795 0.000976562H24.2206C25.7027 0.000976562 27.0436 0.602269 28.0161 1.57336C28.8009 2.36101 29.3454 3.38889 29.523 4.53615Z" fill="url(#paint4_linear_435_16894)"/>
</g>
</g>
</g>
<defs>
<linearGradient id="paint0_linear_435_16894" x1="19.4249" y1="21.3615" x2="9.88259" y2="15.7774" gradientUnits="userSpaceOnUse">
<stop stop-color="#F5103B"/>
<stop offset="1" stop-color="#7B081E"/>
</linearGradient>
<linearGradient id="paint1_linear_435_16894" x1="17.2176" y1="30.7358" x2="17.0055" y2="40.4902" gradientUnits="userSpaceOnUse">
<stop stop-color="#F5103B"/>
<stop offset="1" stop-color="#7B081E"/>
</linearGradient>
<linearGradient id="paint2_linear_435_16894" x1="9.1193" y1="12.6459" x2="9.39999" y2="-0.125149" gradientUnits="userSpaceOnUse">
<stop stop-color="#F5103B"/>
<stop offset="1" stop-color="#7B081E"/>
</linearGradient>
<linearGradient id="paint3_linear_435_16894" x1="16.2363" y1="25.3579" x2="7.56819" y2="27.8245" gradientUnits="userSpaceOnUse">
<stop stop-color="#F5103B"/>
<stop offset="1" stop-color="#7B081E"/>
</linearGradient>
<linearGradient id="paint4_linear_435_16894" x1="24.1045" y1="4.87925" x2="36.4742" y2="4.59652" gradientUnits="userSpaceOnUse">
<stop stop-color="#F5103B"/>
<stop offset="1" stop-color="#7B081E"/>
</linearGradient>
</defs>
</svg>
