<svg width="608" height="80" viewBox="0 0 608 80" fill="none" xmlns="http://www.w3.org/2000/svg">
<path d="M88.3788 21.3455H119.949V34.1996H111.408V78.7572H96.9179V34.1996H88.3763V21.3455H88.3788ZM184.004 32.7176V21.3455H144.655V34.1996H167.06L143.739 66.4491V78.7572H185.146V65.9032H159.937L184.004 32.7202V32.7176ZM131.769 0C126.946 0 123.036 3.99351 123.036 8.91778C123.036 13.8421 126.946 17.8356 131.769 17.8356C136.592 17.8356 140.502 13.8421 140.502 8.91778C140.502 3.99351 136.592 0 131.769 0ZM124.525 78.7546H139.015V21.3455H124.525V78.7546ZM35.3067 65.6666C24.0214 65.6666 15.5561 56.2418 15.5561 44.4017C15.5561 32.5616 24.0214 23.2928 35.3067 23.2928C43.4666 23.2928 50.0993 28.3549 53.151 35.1329L65.9609 28.5889C60.3182 16.9828 49.3383 9.19338 35.3067 9.19338C16.0143 9.19338 0 25.2402 0 44.4797C0 63.7192 15.8616 79.922 35.3067 79.922C49.491 79.922 60.5473 72.1326 66.1899 60.3705L53.0746 53.7485C50.0255 60.5265 43.5429 65.6666 35.3067 65.6666ZM104.164 17.8382C108.987 17.8382 112.894 13.8447 112.894 8.92038C112.894 3.9961 108.985 0.00260247 104.164 0.00260247C99.3434 0.00260247 95.4315 3.9961 95.4315 8.92038C95.4315 13.8447 99.3409 17.8382 104.164 17.8382ZM504.062 78.7546H518.552V10.3633H504.062V78.7546ZM76.5615 0C71.7384 0 67.8316 3.99351 67.8316 8.91778C67.8316 13.8421 71.741 17.8356 76.5615 17.8356C81.3821 17.8356 85.2915 13.8421 85.2915 8.91778C85.2915 3.99351 81.3821 0 76.5615 0ZM69.3154 78.7546H83.8051V21.3455H69.3154V78.7546ZM242.645 49.8538C242.645 51.8011 242.645 53.2025 242.416 55.0718H198.57C200.552 61.8499 206.271 66.5999 213.973 66.5999C219.31 66.5999 223.887 64.0286 226.936 60.0559L238.145 68.2353C231.968 76.0247 223.199 79.9194 213.744 79.9194C196.816 79.9194 184.004 66.7559 184.004 49.9292C184.004 33.1024 196.511 20.1729 213.439 20.1729C230.367 20.1729 242.645 32.871 242.645 49.8512V49.8538ZM228.842 44.2457C226.783 37.2363 220.988 33.1076 213.744 33.1076C206.501 33.1076 200.476 37.6263 198.57 44.2457H228.842ZM546.155 10.3607H531.665V21.3429H523.123V34.1969H531.665V78.7546H546.155V34.1969H554.696V21.3429H546.155V10.3607ZM483.548 21.3455H497.275V78.7546H483.548V72.9906C479.812 77.2753 474.169 80 467.002 80C450.912 80 438.56 67.3799 438.56 50.0098C438.56 32.6396 450.914 20.1755 467.002 20.1755C473.714 20.1755 479.433 22.5128 483.548 27.1849V21.3429V21.3455ZM484.083 49.6978C484.083 40.507 477.371 33.573 468.527 33.573C459.682 33.573 453.047 40.507 453.047 49.6978C453.047 58.8885 459.682 66.1346 468.527 66.1346C477.371 66.1346 484.083 59.2785 484.083 49.6978ZM435.508 49.8538C435.508 51.8011 435.508 53.2025 435.279 55.0718H391.433C393.416 61.8499 399.135 66.5999 406.837 66.5999C412.174 66.5999 416.75 64.0286 419.799 60.0559L431.008 68.2353C424.831 76.0247 416.063 79.9194 406.608 79.9194C389.68 79.9194 376.867 66.7559 376.867 49.9292C376.867 33.1024 389.374 20.1729 406.302 20.1729C423.23 20.1729 435.508 32.871 435.508 49.8512V49.8538ZM421.706 44.2457C419.647 37.2363 413.851 33.1076 406.608 33.1076C399.364 33.1076 393.34 37.6263 391.433 44.2457H421.706ZM586.57 20.1755C581.385 20.1755 576.809 21.8109 573.76 25.0842V10.3607H559.27V78.752H573.76V44.6331C573.76 38.0891 577.725 33.9604 583.902 33.9604C590.079 33.9604 593.51 37.9331 593.51 44.5551V78.752H608V42.1398C608 28.5863 598.926 20.1729 586.572 20.1729L586.57 20.1755ZM273.91 20.1755C268.343 20.1755 263.159 22.2788 260.107 26.0955V21.3429H246.305V78.752H260.794V44.6331C260.794 38.0891 264.76 33.9604 270.937 33.9604C277.114 33.9604 280.545 37.9331 280.545 44.7111V78.752H295.035V42.2178C295.035 28.6643 286.34 20.1729 273.912 20.1729L273.91 20.1755ZM357.88 36.5343H329.988V10.3607H315.498V78.752H329.988V49.8538H357.88V78.752H372.37V10.3607H357.88V36.5343Z" fill="#1C0A1C"/>
</svg>
