<svg width="29" height="21" viewBox="0 0 29 21" fill="none" xmlns="http://www.w3.org/2000/svg">
<path d="M7.08979 20.0216C7.08979 20.0216 -1.64465 16.9461 0.275939 13.7001C1.49975 11.6498 4.29477 13.8707 8.661 16.0915L7.08782 20.0216H7.08979Z" fill="#130F02"/>
<path d="M17.7465 18.9959C24.3847 19.5075 27.3258 16.6234 28.0245 15.7707C28.0245 15.7707 24.0609 10.9216 21.7258 7.66801C20.1349 5.45284 18.0978 2.30346 16.9313 0.474853C16.5168 -0.175108 15.5259 -0.148574 15.1035 0.497597C10.7688 7.10711 2.78641 12.0623 0.996094 13.0174C2.41137 12.4527 4.99321 14.2131 8.48897 16.0929C8.48897 16.0929 11.0846 17.389 12.8434 17.9897C15.0975 18.759 17.7485 18.9978 17.7485 18.9978L17.7465 18.9959Z" fill="#FF550C"/>
</svg>
