<svg xmlns="http://www.w3.org/2000/svg" viewBox="0 0 800 104" fill="#151D1F" role="img" aria-label="Dorsia">
  <path d="M0 1.341v100.321h40.196c28.286 0 49.67-18.509 49.67-50.16 0-31.653-21.113-50.16-49.4-50.16H0Zm40.467 13.68c19.76 0 33.294 12.473 33.294 36.48 0 24.008-13.805 36.48-33.43 36.48h-24.36v-72.96h24.496ZM208.423 0c-29.504 0-51.7 19.715-51.7 51.502 0 31.785 22.196 51.501 51.7 51.501 29.369 0 51.565-19.716 51.565-51.502S237.792 0 208.423 0Zm0 14.217c20.166 0 35.189 13.814 35.189 37.285 0 23.336-15.023 37.284-35.189 37.284-20.301 0-35.323-13.948-35.323-37.285 0-23.47 15.022-37.284 35.323-37.284Zm178.3 46.404c10.558-4.291 17.46-13.814 17.46-28.299 0-20.251-13.534-30.98-31.805-30.98h-40.873v100.32h16.104V63.304h22.331l21.385 38.358h18.137l-22.739-41.04Zm-39.249-45.197h22.874c9.608 0 17.325 5.498 17.325 16.898 0 11.267-7.717 16.765-17.325 16.765h-22.874V15.424ZM509.987 0c-23.549 0-35.053 13.546-35.053 29.372 0 19.179 14.887 24.678 33.023 29.104 15.43 3.62 24.227 5.9 24.227 15.96 0 10.46-8.528 14.753-20.166 14.753-12.723 0-22.332-6.84-23.008-17.57l-16.376.939c.677 19.581 17.187 30.445 39.384 30.445 20.028 0 36.542-8.986 36.542-29.64 0-17.704-13.4-24.142-34.647-29.238-14.618-3.353-22.469-5.23-22.469-15.29 0-8.583 6.497-15.02 18.813-15.02 11.369 0 18.813 6.169 19.355 16.227l16.375-.938C545.311 10.729 530.693 0 509.987 0ZM619.66 1.341v100.321h16.103V1.342H619.66Zm123.77 0-42.767 100.321h17.456l9.339-22.398h45.747l9.201 22.398H800L757.098 1.342H743.43Zm23.684 63.706h-33.431l16.783-40.37 16.648 40.37Z"/>
</svg>
