<svg width="120" height="30" viewBox="0 0 120 30" fill="none" xmlns="http://www.w3.org/2000/svg">
<path d="M29.4375 9.24048H33.6046V13.1266H29.4375L29.4017 22.8556C29.443 23.7444 29.5608 24.8347 30.339 25.1296C31.0399 25.4459 32.7421 25.1545 33.5708 25.0716V29.246C30.886 30.2896 28.5515 30.04 26.7094 28.9478C24.3246 27.2615 24.1421 24.3249 24.1412 22.637L24.1408 22.6364L24.1766 13.1266H20.4784V9.24048H20.5243C23.4543 8.87319 24.1766 6.98958 24.1766 4.9587V3.4123H29.4375V9.24048Z" fill="#0A0A0A"/>
<path fill-rule="evenodd" clip-rule="evenodd" d="M101.725 8.55176C104.404 8.58152 110.145 9.46692 110.611 15.2587C110.627 15.4575 110.63 15.6424 110.622 15.8142V29.6312H105.361L105.372 27.2909C103.389 29.6227 101.031 29.9247 99.7658 29.9073C94.6953 29.8379 93.6009 27.0676 93.19 25.8352C92.779 24.6029 92.4037 22.1561 94.3694 19.9236C96.3171 17.4768 102.564 17.2904 103.829 17.1336C104.827 17.0012 105.405 16.3191 105.422 15.6482L105.422 15.5466V15.5463C105.383 14.3257 104.299 12.9316 101.725 12.8486C99.6497 12.8487 98.7182 14.0862 98.212 15.2467H93.2104C93.4188 13.0646 95.4135 8.67079 101.725 8.55176ZM105.401 20.517C104.248 21.0229 101.461 21.1083 101.124 21.1542C100.731 21.2078 98.483 21.5116 98.0506 22.9093C97.5203 25.0506 99.0511 26.1746 101.821 25.9246C104.571 25.5055 105.272 23.7674 105.394 22.2052L105.401 20.517Z" fill="#0A0A0A"/>
<path fill-rule="evenodd" clip-rule="evenodd" d="M10.3204 8.48473C16.3808 8.48475 20.0389 12.8719 19.8791 19.1777C19.8791 19.6249 19.8568 20.3638 19.8129 20.7965H14.9683V20.7964H5.46962C5.67964 23.3676 7.45567 25.2895 10.3205 25.2895C12.0663 25.2894 13.26 24.7342 14.2001 23.5315H19.5997C18.1689 27.2671 15.0255 29.8707 10.3204 29.8708C4.14316 29.8708 0.0654409 25.0833 0.0654297 19.1777C0.0654424 13.2721 4.13846 8.48474 10.3204 8.48473ZM10.3205 12.872C7.29698 12.872 5.7599 14.7948 5.46962 16.9171H14.7735C14.7102 14.628 12.8881 12.872 10.3205 12.872Z" fill="#0A0A0A"/>
<path fill-rule="evenodd" clip-rule="evenodd" d="M44.6312 8.48473C50.6916 8.48475 54.3497 12.8719 54.19 19.1777C54.19 19.6249 54.1676 20.3638 54.1238 20.7965H49.2792V20.7964H39.7804C39.9905 23.3676 41.7665 25.2895 44.6313 25.2895C46.3771 25.2894 47.5709 24.7342 48.5109 23.5315H53.9105C52.4797 27.2671 49.3363 29.8707 44.6312 29.8708C38.454 29.8708 34.3763 25.0833 34.3763 19.1777C34.3763 13.2721 38.4493 8.48474 44.6312 8.48473ZM44.6313 12.872C41.6078 12.872 40.0707 14.7948 39.7804 16.9171H49.0844C49.021 14.628 47.1989 12.872 44.6313 12.872Z" fill="#0A0A0A"/>
<path d="M62.4091 11.8688C64.3307 9.13608 67.5806 9.07964 69.0854 9.43976V14.8557C64.7123 13.8389 62.3879 16.8611 62.2184 18.9935V29.6348H56.9551V9.28439H58.5164C60.2896 9.28439 61.7803 10.5907 62.1336 12.2924C62.1619 12.2429 62.3525 11.9535 62.4091 11.8688Z" fill="#0A0A0A"/>
<path d="M118.884 29.6311H113.623V0.0393066H118.884V29.6311Z" fill="#0A0A0A"/>
<path d="M77.5483 11.1085C80.7981 7.54261 85.0795 8.13577 87.8842 10.2753C89.7846 11.8852 90.272 13.7988 90.272 15.2463H90.2791V29.63H85.0159V17.2094C85.0159 15.3382 83.6099 14.286 81.9073 14.1024C78.8907 13.8977 77.2869 16.9551 77.2869 18.5156V29.63H72.0236V9.27963H73.6344C75.2098 9.30083 76.5309 10.3388 77.0467 11.744C77.1385 11.6028 77.3788 11.278 77.5483 11.1085Z" fill="#0A0A0A"/>
</svg>
