<svg width="194" height="33" viewBox="0 0 194 33" fill="none" xmlns="http://www.w3.org/2000/svg">
  <path fill-rule="evenodd" clip-rule="evenodd" d="M15.3567 32.5122C22.3846 33.6926 29.1048 30.0316 32.1493 23.9457C32.2708 23.7038 32.4427 23.492 32.6531 23.3251C32.8634 23.1583 33.107 23.0404 33.3667 22.98C35.6806 22.4366 37.5582 20.5449 37.9733 18.0392C38.0941 17.312 38.0617 16.5962 37.9532 15.9078C37.8771 15.4181 37.6175 15.1955 37.2192 15.1292C36.8007 15.0585 36.4885 15.2171 36.2513 15.6749C35.8921 16.3679 34.5561 16.9969 33.6039 17.5506C32.748 18.0483 32.4067 18.7252 31.9323 18.8497C31.4455 18.9775 30.725 18.3599 29.9428 18.1259C28.9895 17.8405 28.2958 17.8223 27.5484 17.264C27.4195 17.115 27.2462 17.0135 27.0551 16.9749C26.8641 16.9364 26.6659 16.9631 26.4912 17.0509C26.3164 17.1386 26.1749 17.2826 26.0883 17.4606C26.0017 17.6386 25.9749 17.8407 26.0121 18.0357C26.241 19.3996 26.9177 20.6435 27.931 21.5632C28.806 22.2585 28.9828 23.1067 28.3831 24.1307C27.1165 26.286 24.7052 26.7335 22.7035 26.7335C18.9887 26.7335 16.6501 23.8019 16.5125 20.6294C16.4812 19.8942 16.5975 19.5072 17.1469 19.4467C17.7881 19.376 18.1226 19.4467 18.7917 19.4787C19.2214 19.4992 19.6443 19.5392 20.055 19.6225C20.9994 19.8143 21.2119 19.3668 21.2612 19.0061C21.2936 18.7721 21.1829 18.4547 21.0642 18.2709C20.3929 17.2355 20.3593 16.9786 19.312 16.087C19.0793 15.8884 18.8096 15.5254 18.9987 15.2571C19.4015 14.6852 20.5451 14.0459 23.339 13.5447C24.4658 13.3427 26.1229 13.321 26.9475 13.3952C27.8147 13.4728 28.9168 13.5527 29.6553 13.7513C30.6612 14.0219 31.5048 13.2194 31.6358 12.4317C31.7454 11.7695 31.4567 11.2558 30.9129 10.6257C30.5213 10.1713 30.2159 9.90304 30.0424 8.40528C29.7504 5.89378 27.827 4.31153 26.8759 3.5969C24.8193 2.0489 23.2954 1.44386 20.5842 0.988364C17.2593 0.423259 13.8444 0.944679 10.8273 2.47814C9.97739 2.89825 9.00392 2.97769 8.09937 2.70075C7.75922 2.59769 7.41415 2.51234 7.0655 2.44503C4.83522 2.01335 2.52716 2.41406 0.562358 3.57407C0.451878 3.63933 0.35682 3.72859 0.283922 3.83552C0.211024 3.94245 0.162069 4.06442 0.140527 4.19281C0.0599647 4.67798 0.280391 5.04329 0.868941 5.2191C1.75512 5.48395 2.53948 6.08899 2.96131 6.98057C3.26562 7.64543 3.43194 8.36728 3.44985 9.10083C3.46776 9.83438 3.33686 10.5638 3.06537 11.2433C2.72654 12.1756 2.47442 13.1384 2.31234 14.1189C1.19343 20.8612 4.44611 27.3214 9.9881 30.567C11.649 31.5379 13.4674 32.1976 15.3567 32.5122Z" fill="#0AE9F5"/>
  <path d="M56.9401 7.44895C62.0293 7.44895 64.7291 10.3659 64.7291 15.9207V19.148C64.7291 24.8889 62.1224 27.5266 56.5056 27.5266C55.0471 27.5266 53.5576 27.3714 51.8198 27.0611V23.3062C53.4024 23.6786 54.7989 23.8648 56.1332 23.8648C59.5157 23.8648 60.8501 22.6546 60.8501 19.5824C60.0743 20.8547 58.3055 21.6616 56.3194 21.6616C52.037 21.6616 49.2131 18.8687 49.2131 14.6173C49.2131 10.3659 52.5025 7.44895 56.9401 7.44895ZM56.9401 17.9998C59.2675 17.9998 60.788 16.6654 60.788 14.6173C60.788 12.5692 59.2675 11.1107 56.9401 11.1107C54.6127 11.1107 53.1542 12.5382 53.1542 14.6173C53.1542 16.6964 54.6747 17.9998 56.9401 17.9998ZM73.7594 7.44895C78.321 7.44895 81.207 10.5521 81.207 15.4862C81.207 15.7345 81.176 16.1689 81.145 16.6344H69.7562C70.1286 18.7446 71.5871 19.8617 74.0076 19.8617C75.6213 19.8617 76.9556 19.2411 78.0418 17.9998L80.5553 20.5134C78.9727 22.4063 76.8005 23.3373 73.9456 23.3373C68.9494 23.3373 65.8462 20.3272 65.8462 15.4862C65.8462 10.6452 69.1046 7.44895 73.7594 7.44895ZM77.1418 13.6864C76.9556 11.9175 75.7144 10.9245 73.6973 10.9245C71.6802 10.9245 70.3769 11.8865 69.8804 13.6864H77.1418ZM82.1988 3.66306H86.1399V7.82133H91.5084V11.359H86.1399V15.9207C86.1399 18.4653 87.1019 19.4273 89.7086 19.4273H91.5084V22.9649H88.8397C84.3711 22.9649 82.1988 20.7616 82.1988 16.1379V3.66306ZM99.3284 7.44895C101.563 7.44895 103.176 8.22474 104.48 9.9315C105.535 8.34887 107.397 7.44895 109.6 7.44895C113.665 7.44895 116.148 10.0867 116.148 14.4001V22.9649H112.269V14.6483C112.269 12.1658 111.462 11.1728 109.414 11.1728C107.366 11.1728 106.404 12.1968 106.404 14.6483V22.9649H102.525V14.6483C102.525 12.1658 101.656 11.1728 99.4526 11.1728C97.4665 11.1728 96.5976 12.2279 96.5976 14.6483V22.9649H92.7187V14.4001C92.7187 9.99356 95.1391 7.44895 99.3284 7.44895ZM117.172 7.82133H121.051V14.6483C121.051 16.7895 122.323 17.9998 124.588 17.9998C126.854 17.9998 128.157 16.8206 128.157 14.6483V7.82133H132.036V19.148C132.036 24.8889 129.429 27.5266 123.813 27.5266C122.354 27.5266 120.865 27.3714 119.127 27.0611V23.3062C120.709 23.6786 122.106 23.8648 123.44 23.8648C126.885 23.8648 128.25 22.6546 128.25 19.5824C127.412 20.9168 125.861 21.6616 123.999 21.6616C119.841 21.6616 117.172 19.0549 117.172 14.9276V7.82133ZM133.246 3.66306H137.125V9.52808C138.056 8.16268 139.639 7.44895 141.656 7.44895C146.062 7.44895 149.135 10.7073 149.135 15.3931C149.135 20.0789 145.845 23.3373 141.066 23.3373C136.287 23.3373 133.246 20.0169 133.246 15.3931V3.66306ZM141.19 19.6755C143.549 19.6755 145.194 17.9067 145.194 15.3931C145.194 12.8795 143.611 11.0797 141.19 11.0797C138.77 11.0797 137.187 12.8485 137.187 15.3931C137.187 17.9377 138.832 19.6755 141.19 19.6755ZM158.103 7.44895C162.82 7.44895 166.109 10.7073 166.109 15.3931C166.109 20.0789 162.82 23.3373 158.103 23.3373C153.386 23.3373 150.159 20.0789 150.159 15.3931C150.159 10.7073 153.386 7.44895 158.103 7.44895ZM158.103 19.6755C160.461 19.6755 162.106 17.9067 162.106 15.3931C162.106 12.8795 160.461 11.1107 158.103 11.1107C155.744 11.1107 154.038 12.8795 154.038 15.3931C154.038 17.9067 155.682 19.6755 158.103 19.6755ZM175.201 7.44895C179.763 7.44895 183.021 10.7694 183.021 15.3931V22.9649H179.453V20.7927C178.522 22.3753 176.66 23.3373 174.612 23.3373C170.205 23.3373 167.133 20.0789 167.133 15.3931C167.133 10.7073 170.422 7.44895 175.201 7.44895ZM175.077 19.7065C177.436 19.7065 179.08 17.9377 179.08 15.3931C179.08 12.8485 177.436 11.1107 175.077 11.1107C172.719 11.1107 171.074 12.8795 171.074 15.3931C171.074 17.9067 172.657 19.7065 175.077 19.7065ZM184.355 3.66306H188.296V7.82133H193.664V11.359H188.296V15.9207C188.296 18.4653 189.258 19.4273 191.864 19.4273H193.664V22.9649H190.995C186.527 22.9649 184.355 20.7616 184.355 16.1379V3.66306Z" fill="#232626"/>
</svg>
