<svg viewBox="0 0 1010.95 199.64" xmlns="http://www.w3.org/2000/svg"><rect height="198.14" rx="50.21" width="198.14" x=".75" y=".75"/><path d="m148.67 199.64h-97.71c-28.1 0-50.96-22.87-50.96-50.97v-97.71c0-28.1 22.86-50.96 50.96-50.96h97.71c28.11 0 50.97 22.86 50.97 50.96v97.71c0 28.1-22.86 50.96-50.96 50.96zm-97.71-198.14c-27.27 0-49.46 22.19-49.46 49.46v97.71c0 27.27 22.19 49.46 49.46 49.46h97.71c27.27 0 49.46-22.19 49.46-49.46v-97.71c0-27.27-22.19-49.46-49.46-49.46z" fill="#4d4d4d"/><g fill="#fff"><path d="m140.5 99.73 11.79 11.78-10.64 10.64-11.79-11.79-11.79 11.79-10.64-10.64 11.79-11.78-11.79-11.8 10.64-10.64 11.79 11.79 11.79-11.79 10.64 10.64z"/><path d="m71.1 122.35c-12.36 0-22.42-10.06-22.42-22.42s10.06-22.42 22.42-22.42 22.42 10.06 22.42 22.42-10.06 22.42-22.42 22.42zm0-29.89c-4.12 0-7.46 3.35-7.46 7.46s3.35 7.46 7.46 7.46 7.46-3.35 7.46-7.46-3.35-7.46-7.46-7.46z"/><path d="m167.5 59.09h-9.18v-18.16h-18.04v-9.18h27.22z"/><path d="m40.95 59.09h-9.18v-27.34h27.22v9.18h-18.04z"/><path d="m58.99 167.8h-27.22v-27.34h9.18v18.17h18.04z"/><path d="m167.5 167.8h-27.22v-9.17h18.04v-18.17h9.18z"/><path d="m298.17 52.94h-31.61v93.75h73.93v-24.5h-42.32z"/><path d="m386.96 110.53h39.65v-22.77h-39.65v-10.98h45.14v-23.84h-76.21v93.75h77.95v-23.84h-46.88z"/><path d="m487.01 82.67c1.96-2.05 4.35-3.61 7.16-4.69 2.81-1.07 5.96-1.61 9.44-1.61 4.2 0 8.01.87 11.45 2.61s6.63 4.31 9.57 7.7l20.23-17.81c-4.73-5.8-10.74-10.27-18.01-13.39-7.28-3.12-15.56-4.69-24.84-4.69-7.77 0-14.89 1.18-21.36 3.55s-12.08 5.74-16.81 10.11c-4.73 4.38-8.39 9.55-10.98 15.53s-3.89 12.59-3.89 19.82 1.29 13.84 3.89 19.82c2.59 5.98 6.23 11.16 10.92 15.54s10.22 7.75 16.61 10.11c6.38 2.36 13.37 3.55 20.96 3.55 6.87 0 13.97-1.03 21.3-3.08 7.32-2.05 13.84-5 19.55-8.84v-39.64h-27.46v23.73c-.36.14-.72.32-1.07.44-3.39 1.2-6.88 1.81-10.45 1.81s-6.45-.56-9.18-1.67c-2.72-1.12-5.07-2.7-7.03-4.76-1.96-2.05-3.48-4.53-4.55-7.43s-1.61-6.1-1.61-9.58c0-3.66.54-6.92 1.61-9.78s2.59-5.31 4.55-7.37z"/><path d="m562.41 52.94h31.61v93.75h-31.61z"/><path d="m695.4 52.94h-86.52v24.51h27.46v69.24h31.61v-69.24h27.45z"/><path d="m734.38 52.94-40.98 93.75h32.14l6.28-16.34h35.66l6.28 16.34h32.68l-40.98-93.75h-31.07zm6.19 54.65 9.08-23.61 9.08 23.61h-18.15z"/><path d="m886.06 57.23c-6.38-2.86-13.95-4.29-22.7-4.29h-45.14v93.75h31.61v-23.03h13.53c8.75 0 16.32-1.45 22.7-4.35s11.32-6.99 14.8-12.25c3.48-5.27 5.22-11.52 5.22-18.75s-1.74-13.5-5.22-18.82c-3.48-5.31-8.42-9.4-14.8-12.26zm-15 39.11c-2.1 1.96-5.34 2.95-9.71 2.95h-11.52v-21.96h11.52c4.37 0 7.61.98 9.71 2.95 2.1 1.96 3.15 4.64 3.15 8.04s-1.05 6.07-3.15 8.03z"/><path d="m1005.73 69.48c-3.48-5.31-8.42-9.4-14.8-12.26-6.39-2.86-13.95-4.29-22.7-4.29h-45.14v93.75h31.61v-23.03h13.53c8.75 0 16.31-1.45 22.7-4.35 6.38-2.9 11.32-6.99 14.8-12.25 3.48-5.27 5.22-11.52 5.22-18.75s-1.74-13.5-5.22-18.82zm-29.8 26.86c-2.1 1.96-5.34 2.95-9.71 2.95h-11.52v-21.96h11.52c4.37 0 7.61.98 9.71 2.95 2.1 1.96 3.15 4.64 3.15 8.04s-1.05 6.07-3.15 8.03z"/></g></svg>