<svg width="44" height="23" viewBox="0 0 44 23" fill="none" xmlns="http://www.w3.org/2000/svg">
<path d="M14.1865 6.52734C20.3125 6.52743 21.7724 11.4053 21.7725 14.8047C21.7725 16.3394 21.319 21.9483 15.0898 22.5V19.0479C15.9023 18.9378 18.5057 18.1455 18.5059 14.6992C18.5059 10.1784 14.8572 9.96488 14.1865 9.96484C13.5163 9.96484 9.86621 10.178 9.86621 14.6992C9.86633 18.1455 12.4716 18.9378 13.2832 19.0479V22.5C7.0548 21.9491 6.60059 16.3394 6.60059 14.8047C6.60068 11.4052 8.06046 6.52734 14.1865 6.52734ZM3.52539 17.7637C3.52547 19.8848 5.35541 19.2794 5.38477 19.2695V21.8535C5.34631 21.8734 2.81072 23.1704 0.923828 21.2559C0.298482 20.6213 2.77197e-05 19.6098 0 18.3164V0.5H3.52539V17.7637ZM27.9658 17.7637C27.9659 19.902 29.8262 19.2695 29.8262 19.2695V21.8535C29.8091 21.8624 27.2593 23.179 25.3643 21.2559C24.7389 20.6213 24.4414 19.6098 24.4414 18.3164V0.5H27.9658V17.7637ZM35.7705 17.7637C35.7706 19.902 37.6309 19.2695 37.6309 19.2695V21.8535C37.6129 21.8628 35.0636 23.1787 33.1689 21.2559C32.5436 20.6213 32.2461 19.6098 32.2461 18.3164V0.5H35.7705V17.7637ZM43.5645 22.1748H40.0508V6.8877H43.5645V22.1748ZM41.8076 0.5C43.0184 0.5 44 1.49603 44 2.72461C44 3.9532 43.0184 4.94922 41.8076 4.94922C40.5968 4.94916 39.6152 3.95317 39.6152 2.72461C39.6152 1.49606 40.5968 0.500055 41.8076 0.5Z" fill="#914BFF"/>
</svg>
