<svg width="1014" height="317" viewBox="0 0 1014 317" fill="none" xmlns="http://www.w3.org/2000/svg">
<path fill-rule="evenodd" clip-rule="evenodd" d="M528.59 311.242V0.880554H442.283V311.242H528.59ZM615.229 316.378C570.794 316.378 540.886 290.693 540.886 252.593C540.886 233.33 546.44 219.203 558.403 208.929C571.221 197.799 591.73 190.521 622.92 185.812L681.028 177.25V167.833C681.028 151.565 672.91 143.86 658.383 143.86C641.72 143.86 633.175 152.421 631.893 169.545H547.722C551.567 119.887 592.584 92.0615 658.81 92.0615C733.154 92.0615 767.335 119.459 767.335 180.675V258.587C767.335 279.563 769.472 300.111 772.462 311.241H689.573C687.437 301.395 686.582 291.549 686.582 279.991C675.474 302.251 647.701 316.378 615.229 316.378ZM650.692 265.008C670.346 265.008 684.019 253.022 684.019 235.898V215.35L659.238 220.059C637.874 224.34 627.62 232.473 627.62 245.316C627.62 256.874 637.02 265.008 650.692 265.008ZM788.082 311.242V97.1999H871.398V137.44C886.78 107.046 909.852 92.0628 941.47 92.0628C987.187 92.0628 1010.69 121.601 1010.69 178.964V311.242H924.379V192.235C924.379 166.978 917.116 155.848 900.452 155.848C883.362 155.848 874.389 168.69 874.389 193.519V311.242H788.082ZM313.826 316.378C249.309 316.378 196.756 279.135 196.756 203.364C196.756 127.593 249.309 92.0615 313.826 92.0615C378.343 92.0615 430.896 127.593 430.896 203.364C430.896 279.135 378.343 316.378 313.826 316.378ZM313.826 260.299C333.907 260.299 345.871 242.319 345.871 203.364C345.871 164.408 333.907 148.141 313.826 148.141C293.745 148.141 281.781 164.408 281.781 203.364C281.781 242.319 293.745 260.299 313.826 260.299ZM264.572 77.505V7.29903H6.93213V77.505H91.103V311.24H180.401V77.505H264.572Z" fill="#2C2C2C"/>
</svg>
