<svg width="110" height="64" viewBox="0 0 110 64" fill="none" xmlns="http://www.w3.org/2000/svg">
<path d="M100.204 30.5646C100.945 30.5248 101.677 30.7466 102.271 31.1914C102.864 31.6361 103.283 32.2753 103.452 32.997H97.0638C97.212 32.287 97.608 31.6527 98.1811 31.2072C98.7542 30.7617 99.4672 30.534 100.193 30.5646M108.855 34.5646C108.865 33.488 108.662 32.4201 108.258 31.422C107.854 30.4239 107.256 29.5152 106.5 28.7479C105.744 27.9807 104.843 27.37 103.85 26.9508C102.857 26.5316 101.791 26.3122 100.713 26.3052H100.193C98.0136 26.2144 95.8874 26.9912 94.2815 28.4649C92.6756 29.9386 91.7214 31.9887 91.6286 34.1646C91.6286 34.3375 91.6286 34.5105 91.6286 34.6835C91.6862 36.7076 92.4532 38.6473 93.7961 40.1647C95.139 41.6821 96.9725 42.6808 98.9772 42.987C100.982 43.2932 103.031 42.8873 104.766 41.8401C106.502 40.7929 107.815 39.1708 108.476 37.2564H103.062C102.754 37.7281 102.329 38.1117 101.828 38.3695C101.327 38.6273 100.767 38.7504 100.204 38.7267C99.4132 38.7785 98.6333 38.5226 98.0277 38.0126C97.4221 37.5027 97.0378 36.7783 96.9556 35.9916H108.681C108.766 35.5167 108.813 35.036 108.822 34.5538L108.855 34.5646ZM92.4406 42.5969L87.027 34.3483L91.9426 26.8457H85.8468L82.1006 33.0402V21.1484H76.687V42.5969H82.1006V35.97L86.0526 42.6294L92.4406 42.5969ZM64.8529 38.2726C63.9366 38.2872 63.0516 37.9398 62.3906 37.3061C61.7296 36.6724 61.3459 35.8036 61.3232 34.8889V34.6727C61.2952 34.2078 61.3594 33.7419 61.5122 33.3019C61.6651 32.8618 61.9035 32.4563 62.2138 32.1086C62.5241 31.7608 62.9001 31.4777 63.3204 31.2755C63.7406 31.0733 64.1967 30.9561 64.6624 30.9304C65.1282 30.9048 65.5944 30.9713 66.0343 31.1261C66.4742 31.281 66.8792 31.5211 67.2259 31.8327C67.5726 32.1442 67.8542 32.5212 68.0546 32.9417C68.2549 33.3623 68.3701 33.8183 68.3934 34.2835C68.4042 34.413 68.4042 34.5432 68.3934 34.6727C68.4375 35.5944 68.1133 36.4959 67.4921 37.179C66.8708 37.8622 66.0033 38.2711 65.0802 38.3159H64.8637L64.8529 38.2726ZM69.5086 26.7808L68.9564 28.0024C67.5981 26.8848 65.8874 26.2835 64.1275 26.3052C62.0069 26.2322 59.9441 27.0033 58.3928 28.4488C56.8416 29.8943 55.9289 31.8959 55.8555 34.0132C55.8555 34.2294 55.8555 34.4456 55.8555 34.6619C55.7555 36.7892 56.5057 38.8691 57.9411 40.4443C59.3766 42.0194 61.3798 42.961 63.5103 43.0618H64.1275C65.8584 43.0834 67.5429 42.5024 68.8914 41.4186L69.357 42.4996H73.558V26.8241L69.5086 26.7808ZM52.8672 37.851C52.424 37.8902 51.9832 37.7532 51.6406 37.4699C51.298 37.1865 51.0813 36.7796 51.0374 36.3375C51.0265 36.2369 51.0265 36.1354 51.0374 36.0348V31.0186H54.8594V26.8457H50.9074V22.2295H49.8247L42.7221 29.797V31.0186H45.6129V36.9645C45.5475 37.7179 45.6474 38.4764 45.9056 39.1872C46.1638 39.898 46.5742 40.544 47.1082 41.0802C47.6421 41.6164 48.2867 42.0299 48.9971 42.2919C49.7075 42.5538 50.4666 42.6579 51.2214 42.5969H54.9676V37.851H52.8672ZM35.5436 43.1159C39.7446 43.1159 42.5272 40.9537 42.5272 37.7105C42.5272 33.7105 39.214 33.2024 36.713 32.7592C35.1863 32.4457 33.9628 32.2403 33.9628 31.343C33.9628 30.4457 34.5583 30.1754 35.4245 30.1754C35.6343 30.1496 35.8472 30.1682 36.0494 30.23C36.2515 30.2918 36.4384 30.3954 36.5977 30.5341C36.7571 30.6728 36.8853 30.8435 36.9742 31.035C37.0631 31.2265 37.1106 31.4346 37.1136 31.6457H42.2023C42.1374 28.4024 39.5389 26.316 35.5111 26.316C31.4834 26.316 28.7766 28.4024 28.7766 31.5267C28.7766 35.3429 32.0248 36.0889 34.4609 36.4781C35.9767 36.7267 37.1785 36.9862 37.1785 37.8943C37.1785 38.8024 36.4206 39.1159 35.6302 39.1159C35.1999 39.168 34.7664 39.0485 34.4238 38.7834C34.0812 38.5182 33.8572 38.1288 33.8004 37.6997C33.795 37.6133 33.795 37.5266 33.8004 37.4402H28.5601C28.6142 40.8456 31.2127 43.1159 35.5436 43.1159Z" fill="white"/>
<path d="M10.9028 46.0001C13.3178 46.0001 15.6339 45.0422 17.3415 43.3371C19.0492 41.6321 20.0085 39.3195 20.0085 36.9082C20.0085 34.4969 19.0492 32.1844 17.3415 30.4793C15.6339 28.7743 13.3178 27.8164 10.9028 27.8164V46.0001Z" fill="white"/>
<path d="M9.74389 18C7.38468 18.0813 5.14927 19.0742 3.50909 20.7693C1.8689 22.4645 0.952148 24.7294 0.952148 27.0864C0.952148 29.4435 1.8689 31.7084 3.50909 33.4035C5.14927 35.0987 7.38468 36.0916 9.74389 36.1729V18Z" fill="white"/>
<path d="M5.08672e-08 36.0547V36.1304C-0.000263277 38.7239 1.02187 41.2134 2.84538 43.0604C4.66889 44.9075 7.14723 45.9636 9.74449 46.0006V36.0547H5.08672e-08Z" fill="white"/>
<path d="M10.9028 18V26.7459H20.5607C20.2856 24.3671 19.1546 22.169 17.3782 20.5604C15.6018 18.9517 13.3007 18.0418 10.9028 18Z" fill="#29F17A"/>
</svg>
