<svg width="135" height="176" viewBox="0 0 135 176" fill="none" xmlns="http://www.w3.org/2000/svg">
<path d="M57.4287 136.585H43.2858L42.4501 138.685H47.6501L44.1286 149.897H49.493L52.2072 138.685H57.0858L57.4287 136.585Z" fill="#EB540A"/>
<path d="M74.4431 136.585H70.0359L70.2431 141.391H64.4002L64.6145 136.585H60.3216L58.7716 149.897H64.0073L64.2859 143.905H70.2288L70.4788 149.897H75.9859L74.4431 136.585Z" fill="#EB540A"/>
<path d="M91.5002 136.585H77.3859L79.5787 149.897H96.7788L95.6073 146.926H84.1073L83.3787 143.82H92.0502L91.143 141.313H82.793L82.1716 138.685H92.3359L91.5002 136.585Z" fill="#EB540A"/>
<path d="M14.55 163.573L17.3858 158.86C17.5858 158.531 17.8786 158.217 18.2286 157.939C18.5786 157.66 19 157.41 19.4501 157.203C19.9001 156.996 20.3929 156.832 20.8929 156.71C21.3929 156.596 21.9001 156.532 22.4001 156.532C22.9001 156.532 23.3286 156.596 23.7001 156.71C24.0715 156.825 24.3715 156.989 24.5858 157.203C24.8072 157.41 24.9429 157.66 24.9786 157.939C25.0215 158.217 24.9644 158.531 24.7929 158.86L22.3715 163.573H14.55ZM24.6286 152.647C23.4001 152.647 22.1358 152.797 20.9001 153.068C19.6572 153.339 18.4358 153.739 17.3 154.239C16.15 154.746 15.0715 155.353 14.15 156.046C13.2072 156.746 12.4143 157.532 11.85 158.374L0 176H7.27145L12.1715 167.83H20.2072L16.0215 176H23.2786L31.0358 158.374C31.4072 157.532 31.4858 156.746 31.3287 156.046C31.1715 155.36 30.7787 154.746 30.1858 154.239C29.6001 153.739 28.8286 153.339 27.8858 153.068C26.9572 152.797 25.8572 152.647 24.6286 152.647Z" fill="#EB540A"/>
<path d="M112.243 163.573L109.822 158.831C109.65 158.503 109.6 158.189 109.643 157.91C109.686 157.632 109.822 157.382 110.043 157.174C110.265 156.967 110.565 156.803 110.936 156.689C111.307 156.575 111.743 156.51 112.243 156.51C112.743 156.51 113.243 156.575 113.743 156.689C114.243 156.803 114.729 156.967 115.179 157.174C115.629 157.382 116.043 157.632 116.4 157.91C116.757 158.189 117.043 158.503 117.243 158.831L120.093 163.573H112.243ZM110.157 152.647C108.929 152.647 107.829 152.797 106.9 153.068C105.965 153.339 105.186 153.739 104.6 154.239C104.007 154.746 103.615 155.353 103.457 156.046C103.293 156.746 103.379 157.532 103.75 158.374L111.507 176H118.779L114.586 167.83H122.622L127.522 176H134.779L122.929 158.374C122.365 157.532 121.572 156.746 120.629 156.046C119.7 155.36 118.629 154.746 117.479 154.239C116.343 153.739 115.122 153.339 113.879 153.068C112.65 152.797 111.393 152.647 110.157 152.647Z" fill="#EB540A"/>
<path d="M40.0144 160.917L41.4287 156.532H46.8716C47.143 156.532 47.3716 156.553 47.5644 156.589C47.7573 156.624 47.9144 156.682 48.0287 156.76C48.143 156.839 48.2216 156.939 48.2573 157.053C48.293 157.174 48.293 157.31 48.2573 157.474L47.7144 159.788C47.6716 159.974 47.5859 160.138 47.4644 160.274C47.343 160.417 47.1859 160.531 46.9859 160.631C46.7859 160.724 46.5501 160.795 46.2716 160.845C45.993 160.895 45.6787 160.917 45.3287 160.917H40.0144ZM50.2787 153.104H37.0644L28.0858 176H35.1573L38.6287 165.209H44.4144C44.7787 165.209 45.0859 165.237 45.343 165.302C45.6001 165.366 45.8073 165.466 45.9573 165.594C46.1144 165.723 46.2144 165.887 46.2573 166.08C46.3073 166.28 46.3001 166.509 46.2359 166.773L44.093 175.993H51.3502L52.9859 165.752C53.0359 165.423 53.043 165.123 53.0002 164.852C52.9573 164.58 52.8645 164.33 52.7287 164.109C52.593 163.888 52.4073 163.688 52.1716 163.509C51.9359 163.331 51.6573 163.181 51.3287 163.052C51.7073 162.902 52.043 162.723 52.343 162.524C52.6359 162.324 52.893 162.095 53.1073 161.838C53.3216 161.588 53.493 161.302 53.6287 161.002C53.7645 160.702 53.8573 160.374 53.9073 160.024L54.593 155.725C54.6216 155.525 54.6287 155.339 54.593 155.16C54.5645 154.982 54.5002 154.818 54.4073 154.661C54.3145 154.503 54.1859 154.353 54.0287 154.218C53.8716 154.082 53.6787 153.953 53.4573 153.832C53.2359 153.711 53.0002 153.604 52.7573 153.518C52.5144 153.425 52.2573 153.354 51.993 153.296C51.7287 153.239 51.4502 153.189 51.1644 153.161C50.893 153.118 50.593 153.104 50.2787 153.104Z" fill="#EB540A"/>
<path d="M76.7216 153.104H58.7716L56.2216 176H79.4859L78.8431 170.644H63.5144L63.7359 165.209H75.1288L74.7573 160.917H63.9144L64.093 156.532H77.1359L76.7216 153.104Z" fill="#EB540A"/>
<path d="M97.7217 153.104H91.8359L94.9502 162.973L86.5074 153.104H80.4359L84.3002 176H91.9431L88.8145 163.245L99.1574 176H106.7L97.7217 153.104Z" fill="#EB540A"/>
<path d="M122.85 55.441V150.554H120.443V65.0751C120.443 35.8228 96.6574 12.0409 67.4145 12.0409C38.1716 12.0409 14.3715 35.8228 14.3715 65.0751V150.561H11.9644V55.441C11.9644 24.8174 36.7859 0 67.4145 0C98.0289 0 122.85 24.8174 122.85 55.441Z" fill="#EB540A"/>
<path d="M113.222 60.8687V141.563H110.815V69.0531C110.815 45.1141 91.3431 25.6458 67.4144 25.6458C43.4858 25.6458 24 45.1141 24 69.0531V141.563H21.5929V60.8687C21.5929 35.5656 42.1072 15.0547 67.4144 15.0547C92.7074 15.0547 113.222 35.5656 113.222 60.8687Z" fill="#EB540A"/>
<path d="M103.593 66.2964V132.571H101.186V73.0382C101.186 54.4126 86.0359 39.2651 67.4144 39.2651C48.793 39.2651 33.6358 54.4126 33.6358 73.0382V132.571H31.2286V66.2964C31.2286 46.3139 47.4358 30.1166 67.4144 30.1166C87.3859 30.1094 103.593 46.3139 103.593 66.2964Z" fill="#EB540A"/>
<path d="M93.9574 71.7241V123.58H91.5503V77.0232C91.5503 63.704 80.7217 52.8772 67.4145 52.8772C54.1073 52.8772 43.2645 63.704 43.2645 77.0232V123.58H40.8573V71.7241C40.8573 57.0622 52.7502 45.1713 67.4145 45.1713C82.0646 45.1641 93.9574 57.0622 93.9574 71.7241Z" fill="#EB540A"/>
<path d="M84.3288 77.1446V114.581H81.9216V81.0011C81.9216 72.9952 75.4145 66.482 67.4145 66.482C59.4144 66.482 52.893 72.9881 52.893 81.0011V114.581H50.4858V77.1446C50.4858 67.8032 58.0716 60.2188 67.4145 60.2188C76.7431 60.2259 84.3288 67.8032 84.3288 77.1446Z" fill="#EB540A"/>
<path d="M74.7002 82.5723V105.59H72.293V84.9862C72.293 82.2866 70.1002 80.1013 67.4145 80.1013C64.7287 80.1013 62.5287 82.2938 62.5287 84.9862V105.59H60.1216V82.5723C60.1216 78.5515 63.393 75.2806 67.4145 75.2806C71.4359 75.2806 74.7002 78.5515 74.7002 82.5723Z" fill="#EB540A"/>
</svg>
