<svg width="104" height="56" viewBox="0 0 104 56" fill="none" xmlns="http://www.w3.org/2000/svg">
<path fill-rule="evenodd" clip-rule="evenodd" d="M37.9728 4.93317C42.3244 2.01847 46.8614 0 51.625 0C56.3886 0 60.9256 2.01847 65.2772 4.93317C69.4242 7.71088 73.4871 11.362 77.49 15.0042C81.4914 11.3626 85.5455 7.71154 89.6752 4.93409C94.0083 2.01984 98.5198 0 103.25 0V1.75C99.0207 1.75 94.8566 3.55828 90.6518 6.38622C86.683 9.05551 82.7625 12.5733 78.7899 16.1875C82.7625 19.8017 86.683 23.3195 90.6518 25.9888C94.8566 28.8167 99.0207 30.625 103.25 30.625V32.375C98.5198 32.375 94.0083 30.3552 89.6752 27.4409C85.5455 24.6635 81.4914 21.0124 77.49 17.3708C73.4871 21.013 69.4242 24.6641 65.2772 27.4418C60.9256 30.3565 56.3886 32.375 51.625 32.375C46.8614 32.375 42.3244 30.3565 37.9728 27.4418C33.8258 24.6641 29.7629 21.013 25.76 17.3708C21.7586 21.0124 17.7045 24.6635 13.5748 27.4409C9.24169 30.3552 4.73021 32.375 0 32.375V30.625C4.22935 30.625 8.39339 28.8167 12.5982 25.9888C16.567 23.3195 20.4875 19.8017 24.4601 16.1875C20.4875 12.5733 16.567 9.05551 12.5982 6.38622C8.39339 3.55828 4.22935 1.75 0 1.75V0C4.73021 0 9.24169 2.01984 13.5748 4.93409C17.7045 7.71154 21.7586 11.3626 25.76 15.0042C29.7629 11.362 33.8258 7.71088 37.9728 4.93317ZM27.06 16.1875C31.033 19.8012 34.962 23.3188 38.9467 25.9879C43.1681 28.8153 47.359 30.625 51.625 30.625C55.891 30.625 60.0819 28.8153 64.3033 25.9879C68.288 23.3188 72.217 19.8012 76.19 16.1875C72.217 12.5738 68.288 9.05617 64.3033 6.38714C60.0819 3.55965 55.891 1.75 51.625 1.75C47.359 1.75 43.1681 3.55965 38.9467 6.38714C34.962 9.05617 31.033 12.5738 27.06 16.1875Z" fill="#0670BA"/>
<path d="M12.9848 44.7191H11.2412L9.34456 52.7162L7.15765 44.7191H5.82712L3.63978 52.7162L1.74354 44.7191H0L2.84458 55.9057H4.28227L6.48479 48.0657L8.7025 55.9057H10.1398L12.9848 44.7191ZM22.2985 55.9057V44.7191H20.647V49.4955H16.2272V44.7191H14.5752V55.9057H16.2272V51.0196H20.647V55.9057H22.2985ZM26.7951 55.9057V44.7191H25.1435V55.9057H26.7951ZM36.4455 52.7162C36.4455 51.7579 36.1553 50.9567 35.5588 50.4226C35.0998 49.9983 34.5341 49.7467 33.5246 49.5897L32.2856 49.4014C31.781 49.3229 31.3377 49.1342 31.0622 48.8826C30.7715 48.6158 30.6492 48.2544 30.6492 47.8457C30.6492 46.8562 31.3529 46.1017 32.6374 46.1017C33.5549 46.1017 34.335 46.3061 35.0078 46.9659L36.0633 45.8978C35.1302 45.002 34.1211 44.625 32.6834 44.625C30.4197 44.625 29.0432 45.9603 29.0432 47.9086C29.0432 48.8201 29.3035 49.5268 29.8388 50.0456C30.313 50.5011 31.0162 50.8152 31.9034 50.941L33.1879 51.1293C33.8304 51.2239 34.1055 51.3337 34.381 51.6009C34.6716 51.8681 34.8091 52.2763 34.8091 52.7635C34.8091 53.8477 33.9831 54.4758 32.5611 54.4758C31.4444 54.4758 30.5729 54.2246 29.7777 53.4078L28.6762 54.5231C29.7165 55.6072 30.8939 55.9998 32.5303 55.9998C34.8091 55.9998 36.4455 54.7747 36.4455 52.7162ZM47.1514 55.9057L43.2513 49.1025L46.7844 44.7191H44.7658L40.3152 50.3441V44.7191H38.6632V55.9057H40.3152V52.6533L42.1503 50.391L45.2092 55.9057H47.1514ZM55.6856 55.9057V54.3817H50.3786V51.0196H54.9056V49.5112H50.3786V46.2432H55.6856V44.7191H48.7266V55.9057H55.6856ZM65.8865 55.9057H63.9595L61.6654 51.1922H59.6008V55.9057H57.9493V44.7191H62.1704C64.235 44.7191 65.5503 46.0861 65.5503 47.9871C65.5503 49.5897 64.602 50.6109 63.3786 50.9566L65.8865 55.9057ZM63.8983 48.0028C63.8983 46.903 63.1491 46.2432 62.048 46.2432H59.6008V49.7467H62.048C63.1491 49.7467 63.8983 49.1025 63.8983 48.0028ZM74.8645 55.9057V54.3817H69.6183V44.7191H67.9667V55.9057H74.8645ZM84.7596 55.9057H83.0009L82.2512 53.6589H77.9538L77.2041 55.9057H75.4454L79.4374 44.7191H80.768L84.7596 55.9057ZM81.7927 52.2134L80.1406 47.2488L78.4431 52.2134H81.7927ZM93.997 52.7479C93.997 54.806 92.6361 55.9057 90.709 55.9057H86.304V44.7191H90.5407C92.5593 44.7191 93.8287 45.8978 93.8287 47.7828C93.8287 48.9927 93.0946 49.8569 92.3606 50.1554C93.2018 50.5011 93.997 51.3336 93.997 52.7479ZM92.3454 52.6694C92.3454 51.6794 91.7029 50.9723 90.5559 50.9723H87.956V54.3817H90.5559C91.7029 54.3817 92.3454 53.659 92.3454 52.6694ZM92.1771 47.8457C92.1771 46.8089 91.4582 46.2432 90.4032 46.2432H87.956V49.4482H90.4032C91.4582 49.4482 92.1771 48.883 92.1771 47.8457ZM103.25 52.7162C103.25 51.7579 102.959 50.9567 102.363 50.4226C101.904 49.9983 101.338 49.7467 100.329 49.5897L99.0901 49.4014C98.5855 49.3229 98.1417 49.1342 97.8667 48.8826C97.576 48.6158 97.4537 48.2544 97.4537 47.8457C97.4537 46.8562 98.1569 46.1017 99.4419 46.1017C100.359 46.1017 101.139 46.3061 101.812 46.9659L102.868 45.8978C101.935 45.002 100.925 44.625 99.4879 44.625C97.2242 44.625 95.8477 45.9603 95.8477 47.9086C95.8477 48.8201 96.1075 49.5268 96.6429 50.0456C97.117 50.5011 97.8207 50.8152 98.7079 50.941L99.9924 51.1293C100.635 51.2239 100.91 51.3337 101.185 51.6009C101.476 51.8681 101.614 52.2763 101.614 52.7635C101.614 53.8477 100.788 54.4758 99.3651 54.4758C98.2489 54.4758 97.3769 54.2246 96.5817 53.4078L95.4807 54.5231C96.5205 55.6072 97.6984 55.9998 99.3347 55.9998C101.614 55.9998 103.25 54.7747 103.25 52.7162Z" fill="#0670BA"/>
</svg>
