<?xml version="1.0" encoding="UTF-8" standalone="no"?>
<!-- Generator: Adobe Illustrator 28.2.0, SVG Export Plug-In . SVG Version: 6.00 Build 0)  -->

<svg
   version="1.1"
   id="Layer_1"
   x="0px"
   y="0px"
   viewBox="0 0 1324.5337 450"
   xml:space="preserve"
   sodipodi:docname="Winit-logo-color.svg"
   width="1324.5337"
   height="450"
   inkscape:version="1.4.2 (f4327f4, 2025-05-13)"
   xmlns:inkscape="http://www.inkscape.org/namespaces/inkscape"
   xmlns:sodipodi="http://sodipodi.sourceforge.net/DTD/sodipodi-0.dtd"
   xmlns="http://www.w3.org/2000/svg"
   xmlns:svg="http://www.w3.org/2000/svg"><defs
   id="defs7" /><sodipodi:namedview
   id="namedview7"
   pagecolor="#ffffff"
   bordercolor="#000000"
   borderopacity="0.25"
   inkscape:showpageshadow="2"
   inkscape:pageopacity="0.0"
   inkscape:pagecheckerboard="true"
   inkscape:deskcolor="#d1d1d1"
   inkscape:zoom="0.56064815"
   inkscape:cx="574.33526"
   inkscape:cy="138.23287"
   inkscape:window-width="2560"
   inkscape:window-height="1369"
   inkscape:window-x="-8"
   inkscape:window-y="-8"
   inkscape:window-maximized="1"
   inkscape:current-layer="Layer_1" />
<style
   type="text/css"
   id="style1">
	.st0{fill:#0B2760;}
	.st1{fill:#AEFFFD;}
</style>
<path
   class="st0"
   d="m 412.93366,138.7 h -83 c -1.4,0 -2.7,1 -3,2.4 l -19.3,93 c 0,0.1 0,0.1 0,0.2 -2,14.4 -3.9,28.1 -5.7,41 -1.5,10.7 -3,22.6 -4.7,35.6 -0.2,1.5 -2.3,1.5 -2.6,0.1 -2.3,-12.7 -4.6,-24.4 -6.9,-35.1 -2.8,-13 -6.2,-26.3 -10.2,-39.9 l -27.6,-95.1 c -0.4,-1.3 -1.6,-2.2 -2.9,-2.2 h -69.2 c -1.4,0 -2.6,0.9 -2.9,2.3 l -24,93.8 c -3.2,14.4 -5.9,28 -8.1,40.8 -1.7,10.1 -3.4,21.3 -5,33.6 -0.2,1.5 -2.4,1.5 -2.6,0 -1.6,-12.3 -3.2,-23.6 -4.7,-33.9 -2,-13 -4.4,-26.7 -7.2,-41.1 l -20.5,-93.1 c -0.3,-1.4 -1.5,-2.4 -2.999995,-2.4 H 3.0336645 c -2,0 -3.49999998,1.9 -2.89999998,3.9 L 84.233665,439.2 c 0.4,1.3 1.6,2.2 2.9,2.2 h 75.799995 c 1.4,0 2.6,-1 3,-2.3 l 24.7,-101.6 c 3.2,-14.4 5.9,-28 8.1,-40.8 1.8,-10.3 3.5,-21.8 5.1,-34.5 0.2,-1.5 2.3,-1.5 2.6,0 1.9,12.7 3.9,24.2 5.8,34.5 2.4,12.8 5.4,26.4 9,40.8 l 26.4,101.6 c 0.3,1.3 1.6,2.3 2.9,2.3 h 77.7 c 1.4,0 2.5,-0.9 2.9,-2.2 l 84.7,-296.6 c 0.6,-1.9 -0.9,-3.9 -2.9,-3.9 z"
   id="path1" />
<path
   class="st0"
   d="m 485.23366,0 c -15.6,0 -28.9,5.2 -39.9,15.6 -11,10.4 -16.5,23.4 -16.5,39 0,15.2 5.5,28.1 16.5,38.7 11,10.6 24.3,15.9 39.9,15.9 15.6,0 28.8,-5.3 39.6,-15.9 10.8,-10.6 16.2,-23.5 16.2,-38.7 0,-15.6 -5.4,-28.6 -16.2,-39 -10.8,-10.4 -24,-15.6 -39.6,-15.6 z"
   id="path2" />
<path
   class="st0"
   d="m 530.23366,138.7 h -90 c -1.7,0 -3,1.4 -3,3 v 296.6 c 0,1.7 1.4,3 3,3 h 90 c 1.7,0 3,-1.4 3,-3 V 141.8 c 0,-1.7 -1.4,-3.1 -3,-3.1 z"
   id="path3" />
<path
   class="st0"
   d="m 862.53366,440.2 c -0.4,-0.6 -0.5,-1.3 -0.4,-2 l 68.3,-297.5 c 0.3,-1.2 1.3,-2 2.6,-2 13.6,0 89.10004,0 89.10004,0 1.3,0 2.3,1.2 2,2.5 l -68.50004,298.3 c -0.3,1.2 -1.4,2.1 -2.6,2.1 h -88.2 c -1,-0.2 -1.8,-0.7 -2.3,-1.4 z"
   id="path4" />
<path
   class="st0"
   d="m 1030.0337,206.5 c -0.3,1.7 1,3.2 2.7,3.2 h 27.9 c 1.5,0.5 2.4,2 2.1,3.6 l -26.1,111.6 c -3.6,14.4 -4.8,29 -3.6,43.8 1.2,14.8 4.8,28.3 10.8,40.5 6,12.2 14.9,22 26.7,29.4 11.8,7.4 27.1,11.1 45.9,11.1 14.4,0 25.4,-1 33,-3 6.5,-1.7 11.3,-3.3 14.3,-4.7 0.9,-0.4 1.5,-1.2 1.7,-2.1 l 13.5,-60.6 c 0.2,-1.1 -0.9,-1.9 -1.8,-1.3 -2.5,1.4 -5.6,2.8 -9.2,4.1 -5,1.8 -10.9,2.7 -17.7,2.7 -8.8,0 -14.7,-2.9 -17.7,-8.7 -3,-5.8 -4.2,-12.8 -3.6,-21 0.6,-8.2 1.7,-16.5 3.3,-24.9 l 27.7,-118.4 c 0.3,-1.4 1.5,-2.3 3,-2.3 h 54 c 1.4,0 2.6,-1 3,-2.4 l 14.8,-64.8 c 0.4,-1.9 -1,-3.7 -3,-3.7 h -51.5 c -2,0 -3.4,-1.8 -3,-3.7 l 20.2,-87.8 c 0.5,-2.3 -1.6,-4.3 -3.9,-3.6 l -97.2,30.9 c -1,0.3 -1.8,1.2 -2,2.2 l -14.1,59.6 c -0.3,1.4 -1.5,2.3 -3,2.3 h -29.6 c -1.3,0 -2.4,0.9 -2.7,2.2 z"
   id="path5" />
<path
   class="st0"
   d="m 957.23366,101.4 c 10.6,9.9 23.3,14.8 38.2,14.8 14.80004,0 27.50004,-4.9 37.90004,-14.8 11.5,-10.9 17.5,-26.9 16.5,-42.7 -0.9,-13.4 -6.1,-24.7 -15.7,-33.9 -10.5,-10.1 -23.4,-15.2 -38.60004,-15.2 -15.2,0 -28.2,5.1 -38.9,15.2 -10.2,9.6 -15.5,21.5 -16.1,35.7 -0.7,15.3 5.6,30.5 16.7,40.9 z"
   id="path6" />
<path
   class="st0"
   d="m 808.73366,170.6 c -8,-12.8 -17.6,-22.7 -28.8,-29.7 -11.2,-7 -23.6,-10.5 -37.2,-10.5 -14.8,0 -28.5,4 -41.1,12 -10.5,6.7 -20.3,14.7 -29.2,24.2 -1.9,2 -5.3,0.7 -5.3,-2 v -22.7 c 0,-1.7 -1.4,-3 -3,-3 h -90 c -1.7,0 -3,1.4 -3,3 v 296.6 c 0,1.7 1.4,3 3,3 h 90 c 1.7,0 3,-1.4 3,-3 V 261.8 c 0,-6.4 0.9,-13.4 2.7,-21 1.8,-7.6 4.2,-15 7.2,-22.2 3,-7.2 6.9,-13 11.7,-17.4 4.8,-4.4 10.4,-6.6 16.8,-6.6 6.8,0 12.3,2.3 16.5,6.9 4.2,4.6 7.5,10.7 9.9,18.3 2.4,7.6 4,15.4 4.8,23.4 0.8,8 1.2,15.4 1.2,22.2 v 172.9 c 0,1.7 1.4,3 3,3 h 90.6 c 1.7,0 3,-1.4 3,-3 V 270.8 c 0,-20 -2.3,-38.5 -6.9,-55.5 -4.6,-17 -10.9,-31.9 -18.9,-44.7 z"
   id="path7" />
<circle
   class="st1"
   cx="1271.5337"
   cy="397"
   r="53"
   id="circle7" />
</svg>
